<svg xmlns="http://www.w3.org/2000/svg" width="400" height="600" viewBox="0 0 400 600"><rect width="400" height="600" fill="#5b4335"/><text x="30" y="40" fill="#dec69b" font-family="Arial,sans-serif" font-size="11" letter-spacing="3">КАДР / КОЛЛЕКЦИЯ 06</text><path d="M75 335Q140 310 200 345Q260 310 325 335V175Q260 150 200 185Q140 150 75 175Z" fill="#dec69b"/><path d="M200 185V345" stroke="#5b4335" stroke-width="3"/><path d="M95 205Q135 193 180 209 M220 209Q260 193 305 205" fill="none" stroke="#987b53" stroke-width="2"/><path d="M95 225Q135 213 180 229 M220 229Q260 213 305 225" fill="none" stroke="#987b53" stroke-width="2"/><path d="M95 245Q135 233 180 249 M220 249Q260 233 305 245" fill="none" stroke="#987b53" stroke-width="2"/><path d="M95 265Q135 253 180 269 M220 269Q260 253 305 265" fill="none" stroke="#987b53" stroke-width="2"/><path d="M95 285Q135 273 180 289 M220 289Q260 273 305 285" fill="none" stroke="#987b53" stroke-width="2"/><path d="M180 360L265 90L280 80L274 115Z" fill="#ddd9bc"/><rect y="411" width="400" height="189" fill="#5b4335"/><text x="30" y="455" fill="#f7f1df" font-size="30" font-family="Georgia,serif">Общество мёртвых</text><text x="30" y="491" fill="#f7f1df" font-size="30" font-family="Georgia,serif">поэтов</text><text x="30" y="568" fill="#dec69b" font-family="Arial,sans-serif" font-size="12" letter-spacing="2">1989 / ПИТЕР УИР</text></svg>