<svg xmlns="http://www.w3.org/2000/svg" width="400" height="600" viewBox="0 0 400 600"><rect width="400" height="600" fill="#bf817b"/><text x="30" y="40" fill="#f4d9b1" font-family="Arial,sans-serif" font-size="11" letter-spacing="3">КАДР / КОЛЛЕКЦИЯ 02</text><path d="M65 390V200H130V150H270V200H335V390Z" fill="#f4d9b1"/><path d="M55 200L95 150L140 200M120 150L200 90L280 150M260 200L305 150L345 200" fill="#714751"/><rect x="90" y="220" width="18" height="28" rx="9" fill="#91696d"/><rect x="90" y="270" width="18" height="28" rx="9" fill="#91696d"/><rect x="90" y="320" width="18" height="28" rx="9" fill="#91696d"/><rect x="140" y="220" width="18" height="28" rx="9" fill="#91696d"/><rect x="140" y="270" width="18" height="28" rx="9" fill="#91696d"/><rect x="140" y="320" width="18" height="28" rx="9" fill="#91696d"/><rect x="190" y="220" width="18" height="28" rx="9" fill="#91696d"/><rect x="190" y="270" width="18" height="28" rx="9" fill="#91696d"/><rect x="190" y="320" width="18" height="28" rx="9" fill="#91696d"/><rect x="240" y="220" width="18" height="28" rx="9" fill="#91696d"/><rect x="240" y="270" width="18" height="28" rx="9" fill="#91696d"/><rect x="240" y="320" width="18" height="28" rx="9" fill="#91696d"/><rect x="290" y="220" width="18" height="28" rx="9" fill="#91696d"/><rect x="290" y="270" width="18" height="28" rx="9" fill="#91696d"/><rect x="290" y="320" width="18" height="28" rx="9" fill="#91696d"/><rect y="411" width="400" height="189" fill="#bf817b"/><text x="30" y="455" fill="#f7f1df" font-size="30" font-family="Georgia,serif">Отель Гранд</text><text x="30" y="491" fill="#f7f1df" font-size="30" font-family="Georgia,serif">Будапешт</text><text x="30" y="568" fill="#f4d9b1" font-family="Arial,sans-serif" font-size="12" letter-spacing="2">2014 / УЭС АНДЕРСОН</text></svg>